<?xml version="1.0" encoding="UTF-8"?>
<svg id="Layer_1" data-name="Layer 1" xmlns="http://www.w3.org/2000/svg" viewBox="0 0 786.87 152.25">
  <defs>
    <style>
      .cls-1 {
        fill: #432dd7;
      }

      .cls-2 {
        fill: #fff;
      }
    </style>
  </defs>
  <path class="cls-1" d="M8.37,5.23c2.34-.48,4.35-.11,6.22,1.38,15.79,15.59,34.2,29.48,50.01,44.89,13.36,13.03,15.54,16.45,2.5,31.5-15.68,18.08-35.54,34.37-50.94,52.95-4.89,5.39-11.08,5.47-14.7-1.32s.35-11.39,4.67-16.7c10.58-12.98,24-25.21,34.99-37.94,3.43-3.97,9.06-8.44,5.49-13.49C36.62,52.39,9.95,37.09,1.79,23.39c-3.67-6.16-.33-16.74,6.58-18.16Z"/>
  <g>
    <path class="cls-2" d="M632.52,37.03l1.09,2.04c-2.32,23.73,1.07,48.83-.55,72.43-2.24,32.71-21.75,42.63-52.53,40.46-10.2-.72-20.94-4.28-27.32-12.68l8.38-11.33c21.3,15.23,56.79,11.21,52.44-21.99-1.51-.07-1.25,1.9-2.46,3.01-19.11,17.4-49.6,7.83-58.49-15.48-15.49-40.63,27.82-80.08,60.95-45.48v-10.99h18.49ZM586.8,51.26c-23.11,3.86-23.92,45.52-.99,49.47,37.6,6.48,35.07-55.16.99-49.47Z"/>
    <path class="cls-2" d="M286.36,108.96v38.46c0,.31,1.37,1.42,1,2.5h-19.98V37.03h17.98v9.99s9.96-7.52,9.96-7.52c35.64-16.47,61.95,16.03,54.73,50.73-6.44,30.92-41.82,41.28-63.68,18.73ZM305.08,51.25c-27.23,4.63-24.44,58.14,8.67,53.62,26.78-3.65,24.73-59.29-8.67-53.62Z"/>
    <path class="cls-2" d="M723.94,83.98h-57.94c3.09,25.44,30.91,25.82,46.93,10.99l7.59,14.01c-26,23.06-69.62,11.04-73.38-25.63-6.69-65.21,89.03-64.23,76.8.62ZM707.95,70.99c-2.38-27.76-40.16-28.49-41.96,0h41.96Z"/>
    <path class="cls-2" d="M517.14,118.95v-57.44c0-.29-2.44-4.29-3-4.99-6.32-8.02-20.98-6.75-27.52.45-1.95,2.15-5.45,9.89-5.45,12.54v49.45h-18.98l-1-81.92h17.98v9.99c4.29-1.19,6.37-5.75,10.3-8.18,3.64-2.25,7.88-3.47,12.15-3.84,50.03-4.3,30.1,51.52,35.09,81.91l-1.09,2.04h-18.48Z"/>
    <path class="cls-2" d="M175.13,78.33c8.28,7.92,8.35,22.61,1.75,31.54-9.94,13.46-36.94,12.94-50.4,5.62-12.43-6.77-10.17-10.07-1.34-19.44,7.21,6.78,29.92,15.42,36.82,5.89,10.25-14.18-21.77-18.33-29.14-21.76-13.39-6.24-17.3-21.01-9.13-33.49,10.55-16.12,41.95-14.99,54.65-2.03l-8.35,11.08c-7.12-7.4-39.75-9.25-31.35,6.65,4.31,8.16,27.58,7.44,36.49,15.96Z"/>
    <path class="cls-2" d="M243.3,55.93c-7.75-3.73-25.44-10.45-31.88-2.44-10.92,13.57,18.61,16.68,25.67,19.33,13.52,5.07,19.33,14.78,15.87,29.21-5.22,21.76-40.19,22.13-55.83,12.74-12.91-7.75-5.98-10.19.82-19.78,6.89,8,18.23,12.49,28.74,10.73,6.69-1.12,12.15-5.74,8.14-12.67-6.87-11.87-36.06-6.01-42.09-25.84-9.82-32.34,39.36-41.73,57.53-22.57l-6.97,11.28Z"/>
    <path class="cls-2" d="M757.9,37.03v9.99c7.34-7.74,18.67-13.33,28.97-8.49v16.48c-8.39-1.54-18.82-2.81-24.41,5.06-.71,1-3.56,6.78-3.56,7.43v51.45h-18.98c-.58-23.11.77-46.37.04-69.47-.13-4.04-2.94-9.23.46-12.45h17.48Z"/>
    <path class="cls-2" d="M384.27,37.03l.51,9c8.2-7.58,16.12-10.28,27.46-9v17.98c-7.55-1.33-17.18-2.84-22.82,3.65-1.29,1.49-4.15,7.2-4.15,8.83v51.45h-18.98l-1-81.92h18.98Z"/>
    <path class="cls-2" d="M443.21,37.03v81.92h-18.98V39.53c0-.35-1.77-1.11.5-2.5h18.48Z"/>
    <path class="cls-2" d="M430.98.25c17.01-3.2,18.42,25.48-.19,22.73-12.95-1.91-12.14-20.41.19-22.73Z"/>
  </g>
</svg>